<?xml version="1.0" standalone="no"?>
<!DOCTYPE svg PUBLIC "-//W3C//DTD SVG 20010904//EN"
 "http://www.w3.org/TR/2001/REC-SVG-20010904/DTD/svg10.dtd">
<svg version="1.0" xmlns="http://www.w3.org/2000/svg"
 width="300.000000pt" height="292.000000pt" viewBox="0 0 300.000000 292.000000"
 preserveAspectRatio="xMidYMid meet">
<metadata>
Created by potrace 1.10, written by Peter Selinger 2001-2011
</metadata>
<g transform="translate(0.000000,292.000000) scale(0.100000,-0.100000)"
fill="#ffffff" stroke="none">
<path d="M1184 2876 l-34 -34 0 -306 c0 -325 2 -342 49 -373 23 -16 58 -18
306 -21 154 -2 295 0 314 3 19 4 47 20 63 37 26 28 28 36 28 114 0 46 2 84 5
84 3 0 44 -20 89 -44 191 -102 320 -202 424 -331 56 -68 71 -80 99 -83 l34 -3
-50 68 c-67 93 -194 216 -294 284 -87 60 -270 159 -293 159 -12 0 -14 37 -14
206 l0 206 -34 34 -34 34 -312 0 -312 0 -34 -34z m677 -15 l29 -29 0 -305 0
-304 -26 -27 -27 -26 -307 0 -308 0 -26 31 -26 31 0 300 0 300 29 29 29 29
302 0 302 0 29 -29z"/>
<path d="M1533 2832 c-23 -15 -36 -60 -41 -139 -4 -70 -8 -83 -22 -83 -10 0
-23 -7 -30 -15 -7 -8 -27 -15 -46 -15 -58 0 -61 -18 -36 -205 14 -98 35 -115
142 -115 97 0 127 10 136 47 4 15 20 40 36 55 33 31 35 47 9 79 -19 24 -19 26
21 174 37 135 39 152 26 175 -32 58 -77 16 -114 -107 l-23 -78 0 81 c-1 111
-24 168 -58 146z m37 -164 c0 -98 3 -118 15 -118 8 0 17 12 21 28 12 57 47
168 60 195 18 33 42 35 49 5 3 -13 -12 -88 -34 -168 -33 -126 -41 -145 -57
-142 -11 2 -38 4 -61 5 l-42 2 -7 94 c-7 103 0 200 17 233 11 21 12 21 25 3
10 -13 14 -53 14 -137z m-81 -92 c19 -23 10 -136 -12 -150 -14 -8 -20 -8 -27
4 -11 17 -13 119 -4 144 8 20 28 21 43 2z m-74 -76 c0 -52 -1 -55 -25 -55 -22
0 -25 5 -28 44 -4 57 3 73 30 69 21 -3 23 -9 23 -58z m207 -55 c45 -8 62 -27
53 -56 -7 -20 -12 -21 -68 -15 -33 3 -66 11 -73 17 -30 25 -6 74 31 65 11 -2
37 -8 57 -11z m-146 -43 c10 2 28 -6 39 -18 12 -12 41 -24 69 -28 42 -7 46 -9
40 -29 -11 -37 -22 -42 -113 -45 -86 -4 -89 -3 -110 23 -14 19 -21 42 -21 71
0 36 3 43 23 46 12 2 30 -2 39 -10 9 -8 24 -12 34 -10z"/>
<path d="M968 2413 c-49 -2 -88 -7 -88 -11 1 -4 7 -18 14 -31 13 -24 12 -26
-68 -74 -111 -67 -199 -140 -292 -242 l-78 -85 -178 0 -178 0 0 -135 0 -135
116 0 c107 0 116 -1 109 -17 -22 -58 -36 -156 -42 -284 -6 -156 -2 -199 22
-199 8 0 15 -4 15 -10 0 -6 67 -10 181 -10 104 0 188 -4 200 -10 45 -25 49
-52 49 -350 0 -319 -2 -331 -68 -350 -24 -7 -132 -10 -314 -8 l-278 3 -27 28
-28 27 -3 284 c-4 381 -7 376 174 376 61 0 93 4 89 10 -3 6 -50 10 -106 10
-76 0 -106 -4 -125 -16 -52 -34 -54 -50 -54 -364 0 -325 3 -340 65 -366 52
-21 594 -20 635 1 59 31 61 44 58 381 l-3 306 -33 29 -32 29 -187 0 -186 0 6
148 c5 139 23 263 46 325 l11 27 170 0 170 0 0 135 0 135 -95 0 c-52 0 -95 3
-95 6 0 15 79 99 140 149 88 72 242 175 252 169 4 -3 8 -14 8 -24 0 -10 4 -21
8 -24 5 -3 49 35 98 85 l89 89 -40 -2 c-22 -1 -79 -4 -127 -5z m62 -41 c0 -5
-15 -23 -33 -40 -22 -22 -39 -30 -50 -26 -18 7 -23 44 -7 60 11 11 90 17 90 6z
m-379 -412 l69 0 0 -124 0 -124 -182 -4 c-101 -2 -238 -1 -305 0 l-123 4 0
124 0 124 178 3 c97 2 204 2 236 0 32 -2 90 -3 127 -3z"/>
<path d="M546 1874 c-19 -19 -13 -32 22 -45 19 -7 22 -13 14 -21 -8 -8 -15 -8
-27 2 -17 14 -31 8 -20 -9 3 -6 20 -11 36 -11 51 0 48 44 -5 63 -6 2 -8 8 -4
12 4 4 14 2 22 -4 9 -8 16 -8 20 -2 4 6 -2 15 -13 20 -25 14 -27 14 -45 -5z"/>
<path d="M220 1835 c0 -45 0 -45 34 -45 34 0 34 0 34 45 -1 44 -2 45 -35 45
-33 0 -33 -1 -33 -45z m42 20 c0 -5 -5 -11 -11 -13 -6 -2 -11 4 -11 13 0 9 5
15 11 13 6 -2 11 -8 11 -13z m8 -35 c0 -5 -7 -10 -15 -10 -8 0 -15 5 -15 10 0
6 7 10 15 10 8 0 15 -4 15 -10z"/>
<path d="M310 1835 l0 -45 40 0 c22 0 50 6 61 13 17 10 23 10 26 0 3 -7 10
-13 18 -13 10 0 9 10 -4 45 -23 65 -37 61 -66 -21 -4 -13 -55 -6 -55 7 0 5 9
9 20 9 11 0 20 5 20 11 0 6 -9 8 -20 4 -11 -4 -20 -2 -20 4 0 6 9 11 19 11 11
0 23 5 26 10 4 6 -8 10 -29 10 -36 0 -36 0 -36 -45z"/>
<path d="M463 1866 c10 -8 17 -26 17 -45 0 -19 5 -31 13 -31 9 0 12 10 9 31
-3 21 1 34 14 44 17 13 15 14 -26 14 -40 0 -43 -1 -27 -13z"/>
<path d="M1302 2068 c-19 -19 -14 -28 23 -44 19 -8 35 -19 35 -24 0 -16 -38
-11 -48 6 -7 12 -11 13 -16 5 -20 -32 49 -56 74 -26 11 14 14 13 24 -1 16 -21
50 -14 55 11 3 17 1 18 -13 6 -12 -10 -20 -11 -28 -3 -15 15 0 34 23 27 22 -7
25 7 5 24 -18 15 -43 5 -49 -21 -5 -19 -7 -19 -22 -4 -9 9 -23 16 -31 16 -8 0
-14 5 -14 10 0 13 27 13 35 0 4 -6 11 -8 16 -4 15 9 -10 34 -35 34 -12 0 -27
-5 -34 -12z"/>
<path d="M1500 2045 c-10 -12 -10 -18 0 -30 7 -8 16 -12 21 -9 5 3 9 0 9 -7 0
-7 -8 -9 -21 -6 -13 3 -19 1 -16 -6 2 -7 14 -12 28 -12 33 0 38 32 7 44 -18 8
-19 10 -5 10 10 1 17 6 15 13 -7 19 -24 20 -38 3z"/>
<path d="M1564 2045 c-7 -18 14 -47 27 -39 5 3 9 0 9 -7 0 -7 -8 -9 -21 -6
-13 3 -19 1 -16 -6 2 -7 14 -12 28 -12 33 0 38 32 7 44 l-23 10 23 0 c25 1 29
16 6 25 -24 9 -34 7 -40 -9z"/>
<path d="M1642 2048 c-26 -26 -10 -78 24 -78 17 0 25 7 30 27 11 44 -26 79
-54 51z m38 -32 c0 -20 -19 -31 -32 -18 -6 6 -7 15 -4 21 10 16 36 13 36 -3z"/>
<path d="M1728 2052 c-14 -2 -18 -13 -18 -43 0 -21 5 -39 10 -39 6 0 10 13 10
28 0 15 5 33 12 40 14 14 9 20 -14 14z"/>
<path d="M1767 2053 c-14 -14 -6 -40 16 -52 l22 -11 -22 6 c-17 4 -23 1 -23
-11 0 -12 7 -15 27 -13 35 4 45 37 14 45 -11 3 -18 9 -16 14 3 4 12 6 20 2 8
-3 15 -1 15 5 0 16 -40 28 -53 15z"/>
<path d="M1460 2010 c0 -22 5 -40 10 -40 6 0 10 18 10 40 0 22 -4 40 -10 40
-5 0 -10 -18 -10 -40z"/>
<path d="M2300 1790 l0 -139 157 -3 157 -3 11 -45 c7 -25 15 -69 19 -98 l7
-52 -31 0 c-16 0 -30 -2 -30 -4 0 -5 38 -99 66 -164 8 -18 14 -39 14 -47 0
-37 20 -9 44 63 15 42 33 92 41 110 21 46 19 49 -20 44 -33 -4 -35 -3 -35 27
0 17 -7 64 -17 106 l-16 75 -179 0 -178 0 0 130 0 129 73 4 72 3 -77 2 -78 2
0 -140z m404 -365 c13 -13 13 -21 2 -52 -16 -46 -29 -51 -44 -18 -29 64 0 112
42 70z"/>
<path d="M2658 1923 c50 -2 134 -2 185 0 50 1 9 3 -93 3 -102 0 -143 -2 -92
-3z"/>
<path d="M2420 1791 c0 -49 1 -51 29 -51 32 0 57 23 45 42 -5 7 -8 22 -9 33 0
15 -8 21 -32 23 l-33 3 0 -50z m50 19 c0 -5 -7 -10 -15 -10 -8 0 -15 5 -15 10
0 6 7 10 15 10 8 0 15 -4 15 -10z m0 -40 c0 -5 -7 -10 -15 -10 -8 0 -15 5 -15
10 0 6 7 10 15 10 8 0 15 -4 15 -10z"/>
<path d="M2510 1790 l0 -50 40 0 c22 0 50 6 61 13 17 10 23 10 26 0 4 -12 33
-19 33 -9 0 16 -41 96 -49 96 -6 0 -15 -18 -21 -40 -9 -35 -14 -40 -40 -40
-17 0 -30 5 -30 10 0 6 9 10 20 10 11 0 20 5 20 10 0 6 -9 10 -20 10 -11 0
-20 5 -20 10 0 6 11 10 25 10 14 0 25 5 25 10 0 6 -16 10 -35 10 l-35 0 0 -50z"/>
<path d="M2660 1830 c0 -5 5 -10 10 -10 6 0 10 -18 10 -40 0 -30 4 -40 16 -40
12 0 15 9 12 37 -2 22 2 38 10 41 25 8 11 22 -23 22 -19 0 -35 -4 -35 -10z"/>
<path d="M2747 1833 c-10 -9 -9 -43 1 -43 5 0 17 -7 28 -15 18 -15 17 -16 -16
-9 -32 6 -33 5 -21 -10 20 -24 65 -17 69 11 3 17 -3 24 -22 29 -14 3 -26 10
-26 15 0 5 12 6 28 3 24 -7 26 -6 13 9 -14 17 -42 22 -54 10z"/>
<path d="M2743 1653 c37 -2 96 -2 130 0 34 2 4 3 -68 3 -71 0 -99 -1 -62 -3z"/>
<path d="M2221 1183 c1 -23 2 -24 6 -6 2 13 13 24 26 26 18 4 17 5 -5 6 -24 1
-28 -3 -27 -26z"/>
<path d="M2284 1181 c-17 -10 -36 -34 -43 -52 -18 -51 -15 -580 3 -624 26 -62
41 -65 368 -65 275 0 295 1 326 20 18 11 37 32 43 47 6 16 9 141 7 330 l-3
303 -28 27 -27 28 -308 3 c-288 2 -309 1 -338 -17z m625 -12 c58 -20 61 -38
61 -348 0 -196 -4 -288 -12 -306 -23 -52 -43 -55 -342 -55 -166 0 -286 4 -302
10 -53 21 -53 22 -54 351 0 304 0 306 23 326 12 11 29 23 37 26 30 11 556 7
589 -4z"/>
<path d="M2596 1127 c-17 -17 -27 -20 -39 -13 -27 17 -65 -8 -72 -48 -6 -32
-10 -35 -34 -30 -18 4 -33 0 -44 -11 -20 -19 -20 -24 -6 -125 5 -41 12 -120
15 -175 8 -165 36 -195 177 -195 108 0 137 18 189 115 21 39 49 92 64 119 21
40 24 53 15 72 -15 35 -63 32 -92 -3 l-22 -28 6 30 c3 17 13 71 23 122 17 89
17 93 -1 113 -25 27 -49 25 -74 -6 l-21 -27 0 37 c0 23 -7 43 -20 56 -26 26
-36 25 -64 -3z m52 -9 c8 -8 12 -53 12 -135 l0 -123 -30 0 -30 0 0 123 c0 114
7 147 30 147 3 0 11 -5 18 -12z m-90 -30 c8 -8 12 -49 12 -120 l0 -108 -30 0
-30 0 0 113 c0 63 3 117 7 120 10 11 28 8 41 -5z m206 -33 c3 -9 -3 -61 -14
-116 -11 -55 -20 -103 -20 -105 0 -2 -13 2 -30 11 -20 10 -30 23 -30 38 0 22
36 163 46 179 9 14 42 9 48 -7z m-289 -120 c10 -78 10 -81 -13 -99 -13 -10
-25 -17 -26 -15 -8 9 -26 180 -20 190 3 6 16 9 27 7 19 -3 23 -12 32 -83z
m375 -115 c0 -5 -15 -37 -34 -71 l-34 -60 -11 32 c-16 47 -14 64 15 98 21 25
29 29 45 21 10 -6 19 -15 19 -20z m-157 9 c27 -12 35 -26 61 -107 17 -51 17
-55 -2 -90 -31 -61 -72 -82 -162 -82 -64 0 -82 4 -104 21 -37 29 -45 54 -47
145 -2 73 0 79 25 101 24 20 37 23 116 23 49 0 100 -5 113 -11z"/>
<path d="M370 1065 c-8 -10 -30 -15 -61 -15 -27 0 -49 -4 -49 -10 0 -5 -22
-10 -49 -10 -71 0 -75 -8 -68 -148 7 -147 30 -253 64 -292 l25 -30 129 0 c97
0 138 4 159 15 33 17 60 61 60 99 0 15 8 30 20 36 10 6 24 29 31 52 10 40 9
44 -15 65 -24 20 -26 28 -26 106 0 51 -5 88 -12 95 -7 7 -31 12 -54 12 -33 0
-43 4 -47 20 -4 16 -14 20 -50 20 -27 0 -49 -6 -57 -15z m93 -105 c-2 -70 -6
-94 -15 -92 -7 2 -25 4 -40 4 l-28 1 0 94 0 94 43 -3 42 -3 -2 -95z m-113 -50
l0 -120 -40 0 -40 0 0 120 0 120 40 0 40 0 0 -120z m220 19 c0 -81 -2 -90 -17
-85 -10 3 -30 8 -45 12 -27 6 -28 8 -28 78 0 40 3 76 7 79 3 4 24 7 45 7 l38
0 0 -91z m-320 -9 l0 -90 -45 0 -45 0 0 90 0 90 45 0 45 0 0 -90z m260 -84
l105 -23 -3 -39 c-4 -41 -18 -57 -42 -48 -8 3 -46 12 -85 20 -128 26 -118 20
-110 62 8 41 13 52 23 51 4 0 54 -11 112 -23z m-252 -46 c9 -15 23 -20 52 -20
23 0 51 -6 63 -14 12 -7 51 -19 87 -25 36 -7 73 -14 83 -17 26 -8 22 -67 -7
-101 -24 -27 -27 -28 -146 -31 -67 -2 -132 -1 -144 2 -28 7 -53 60 -66 141
-14 86 -15 85 28 85 26 0 41 -6 50 -20z"/>
<path d="M860 816 c0 -31 5 -56 10 -56 6 0 10 12 10 26 0 33 33 30 38 -4 6
-44 20 -21 19 31 l-2 52 -38 3 -37 3 0 -55z m58 22 c-7 -19 -38 -22 -38 -4 0
10 9 16 21 16 12 0 19 -5 17 -12z"/>
<path d="M1110 814 c0 -36 4 -53 11 -49 6 4 8 13 5 21 -8 21 7 17 22 -6 7 -12
17 -18 23 -14 6 4 4 13 -7 25 -14 15 -15 21 -4 34 7 9 10 19 6 23 -4 4 -13 -1
-20 -11 -18 -24 -24 -21 -18 8 2 15 0 25 -7 25 -7 0 -11 -21 -11 -56z"/>
<path d="M1800 816 c0 -31 5 -56 10 -56 6 0 10 11 10 24 0 19 6 25 28 28 21 2
27 8 27 28 0 22 -5 25 -37 28 l-38 3 0 -55z m58 22 c-7 -19 -38 -22 -38 -4 0
10 9 16 21 16 12 0 19 -5 17 -12z"/>
<path d="M960 836 c-15 -19 -9 -56 12 -69 34 -22 66 41 36 71 -16 16 -33 15
-48 -2z m44 -22 c8 -20 -1 -34 -20 -34 -8 0 -14 8 -14 18 0 33 23 44 34 16z"/>
<path d="M1042 838 c-30 -30 2 -93 36 -72 9 6 18 16 20 23 3 10 0 10 -16 2
-24 -13 -38 0 -28 25 4 11 13 13 28 8 20 -6 21 -5 9 10 -16 19 -32 21 -49 4z"/>
<path d="M1900 835 c-12 -14 -10 -15 13 -10 17 5 27 3 27 -4 0 -6 -9 -11 -20
-11 -23 0 -38 -26 -23 -41 6 -6 21 -7 35 -4 22 6 24 10 19 43 -7 41 -30 53
-51 27z m40 -45 c0 -5 -7 -10 -15 -10 -8 0 -15 5 -15 10 0 6 7 10 15 10 8 0
15 -4 15 -10z"/>
<path d="M1970 787 c0 -36 4 -56 10 -52 6 3 10 13 10 21 0 8 5 12 10 9 16 -10
40 14 40 40 0 28 -19 45 -48 42 -20 -1 -22 -7 -22 -60z m50 18 c0 -14 -6 -25
-13 -25 -20 0 -25 9 -20 31 8 28 33 24 33 -6z"/>
<path d="M2062 838 c-28 -28 -3 -86 32 -72 23 9 20 27 -3 19 -11 -3 -22 -1
-26 5 -4 6 4 10 20 10 22 0 26 4 23 22 -3 26 -28 34 -46 16z m33 -18 c3 -5 -3
-10 -15 -10 -12 0 -18 5 -15 10 3 6 10 10 15 10 5 0 12 -4 15 -10z"/>
<path d="M2128 807 c-2 -21 0 -41 4 -43 4 -3 8 6 8 19 0 14 7 30 15 37 21 17
19 29 -4 27 -15 -1 -20 -10 -23 -40z"/>
<path d="M2163 386 c-45 -35 -123 -84 -172 -110 -84 -43 -91 -49 -91 -77 l0
-30 108 56 c131 68 282 178 282 206 0 35 -42 20 -127 -45z"/>
<path d="M18 433 c12 -2 32 -2 45 0 12 2 2 4 -23 4 -25 0 -35 -2 -22 -4z"/>
<path d="M746 433 c41 -4 44 -7 110 -104 60 -88 70 -98 81 -83 7 9 14 22 16
28 3 7 25 0 58 -19 30 -16 99 -48 154 -70 l100 -42 6 -74 c5 -69 6 -70 7 -19
1 30 -1 78 -4 106 -6 50 -8 52 -48 64 -34 10 -221 95 -235 107 -3 1 6 14 19
28 l23 24 -29 7 c-16 4 -71 17 -122 30 -51 13 -111 23 -135 22 l-42 -1 41 -4z
m207 -75 c34 -17 15 -58 -27 -58 -12 0 -46 50 -46 69 0 12 40 6 73 -11z"/>
<path d="M2948 433 c12 -2 30 -2 40 0 9 3 -1 5 -23 4 -22 0 -30 -2 -17 -4z"/>
<path d="M1271 243 c2 -24 2 -25 6 -6 l4 23 312 3 312 2 -317 3 -318 2 1 -27z"/>
<path d="M1390 130 l0 -51 33 3 c31 3 32 5 32 48 0 43 -1 45 -32 48 l-33 3 0
-51z m50 20 c0 -5 -7 -10 -15 -10 -8 0 -15 5 -15 10 0 6 7 10 15 10 8 0 15 -4
15 -10z m0 -35 c0 -8 -7 -15 -15 -15 -8 0 -15 7 -15 15 0 8 7 15 15 15 8 0 15
-7 15 -15z"/>
<path d="M1480 130 l0 -51 43 3 c24 1 47 9 54 17 10 14 13 14 32 -3 12 -11 23
-17 26 -15 8 9 -30 99 -42 99 -7 0 -18 -18 -24 -40 -11 -34 -16 -40 -41 -40
-15 0 -28 5 -28 10 0 6 9 10 20 10 11 0 20 5 20 10 0 6 -9 10 -20 10 -11 0
-20 5 -20 10 0 6 11 10 25 10 14 0 25 5 25 10 0 6 -16 10 -35 10 l-35 0 0 -50z"/>
<path d="M1630 170 c0 -5 5 -10 10 -10 6 0 10 -18 10 -41 0 -28 4 -39 13 -36
7 2 11 18 9 40 -3 28 0 37 12 37 9 0 16 5 16 10 0 6 -16 10 -35 10 -19 0 -35
-4 -35 -10z"/>
<path d="M1717 173 c-16 -15 -6 -43 18 -49 14 -3 25 -10 25 -15 0 -13 -24 -11
-38 3 -17 17 -28 2 -12 -17 16 -19 44 -19 60 0 16 20 5 45 -20 45 -11 0 -20 5
-20 10 0 6 11 8 25 4 14 -3 25 -2 25 4 0 17 -49 29 -63 15z"/>
<path d="M1893 75 c0 -44 2 -61 4 -37 2 23 2 59 0 80 -2 20 -4 1 -4 -43z"/>
</g>
</svg>
